<svg xmlns="http://www.w3.org/2000/svg" xmlns:xlink="http://www.w3.org/1999/xlink" width="500" zoomAndPan="magnify" viewBox="0 0 375 374.999991" height="500" preserveAspectRatio="xMidYMid meet" version="1.0"><defs><clipPath id="583b2e17a2"><path d="M 27 165 L 197 165 L 197 335 L 27 335 Z M 27 165 " clip-rule="nonzero"/></clipPath><clipPath id="a16453b36a"><path d="M 92.636719 -44.824219 L 403.050781 48.019531 L 297.097656 402.261719 L -13.316406 309.417969 Z M 92.636719 -44.824219 " clip-rule="nonzero"/></clipPath><clipPath id="04c3a0431e"><path d="M 92.636719 -44.824219 L 403.050781 48.019531 L 297.097656 402.261719 L -13.316406 309.417969 Z M 92.636719 -44.824219 " clip-rule="nonzero"/></clipPath><clipPath id="8a89471654"><path d="M 92.636719 -44.824219 L 403.050781 48.019531 L 297.097656 402.261719 L -13.316406 309.417969 Z M 92.636719 -44.824219 " clip-rule="nonzero"/></clipPath><clipPath id="a4cd2884fe"><path d="M 152 193 L 322 193 L 322 363 L 152 363 Z M 152 193 " clip-rule="nonzero"/></clipPath><clipPath id="096100bed0"><path d="M 92.636719 -44.824219 L 403.050781 48.019531 L 297.097656 402.261719 L -13.316406 309.417969 Z M 92.636719 -44.824219 " clip-rule="nonzero"/></clipPath><clipPath id="798de7bd04"><path d="M 92.636719 -44.824219 L 403.050781 48.019531 L 297.097656 402.261719 L -13.316406 309.417969 Z M 92.636719 -44.824219 " clip-rule="nonzero"/></clipPath><clipPath id="542cfdd88a"><path d="M 92.636719 -44.824219 L 403.050781 48.019531 L 297.097656 402.261719 L -13.316406 309.417969 Z M 92.636719 -44.824219 " clip-rule="nonzero"/></clipPath><clipPath id="a42aeb4b1f"><path d="M 184.222656 155.464844 L 355.679688 206.75 L 304.820312 376.785156 L 133.367188 325.503906 Z M 184.222656 155.464844 " clip-rule="nonzero"/></clipPath><clipPath id="e97b243a6f"><path d="M 184.222656 155.464844 L 355.363281 206.652344 L 304.503906 376.691406 L 133.367188 325.503906 Z M 184.222656 155.464844 " clip-rule="nonzero"/></clipPath><clipPath id="ba6714d214"><path d="M 54 39 L 224 39 L 224 209 L 54 209 Z M 54 39 " clip-rule="nonzero"/></clipPath><clipPath id="2cb169cbac"><path d="M 92.636719 -44.824219 L 403.050781 48.019531 L 297.097656 402.261719 L -13.316406 309.417969 Z M 92.636719 -44.824219 " clip-rule="nonzero"/></clipPath><clipPath id="cfe603b470"><path d="M 92.636719 -44.824219 L 403.050781 48.019531 L 297.097656 402.261719 L -13.316406 309.417969 Z M 92.636719 -44.824219 " clip-rule="nonzero"/></clipPath><clipPath id="4ccbc5ee52"><path d="M 92.636719 -44.824219 L 403.050781 48.019531 L 297.097656 402.261719 L -13.316406 309.417969 Z M 92.636719 -44.824219 " clip-rule="nonzero"/></clipPath><clipPath id="c474c145e7"><path d="M 149 3 L 327 3 L 327 179 L 149 179 Z M 149 3 " clip-rule="nonzero"/></clipPath><clipPath id="533b98d831"><path d="M 92.636719 -44.824219 L 403.050781 48.019531 L 297.097656 402.261719 L -13.316406 309.417969 Z M 92.636719 -44.824219 " clip-rule="nonzero"/></clipPath><clipPath id="c0ac7a3f5e"><path d="M 92.636719 -44.824219 L 403.050781 48.019531 L 297.097656 402.261719 L -13.316406 309.417969 Z M 92.636719 -44.824219 " clip-rule="nonzero"/></clipPath><clipPath id="a3f312dda2"><path d="M 92.636719 -44.824219 L 403.050781 48.019531 L 297.097656 402.261719 L -13.316406 309.417969 Z M 92.636719 -44.824219 " clip-rule="nonzero"/></clipPath><clipPath id="b6d1db7987"><path d="M 58 75 L 197 75 L 197 330 L 58 330 Z M 58 75 " clip-rule="nonzero"/></clipPath><clipPath id="3ec39354d2"><path d="M 92.636719 -44.824219 L 403.050781 48.019531 L 297.097656 402.261719 L -13.316406 309.417969 Z M 92.636719 -44.824219 " clip-rule="nonzero"/></clipPath><clipPath id="eae6a68c0c"><path d="M 92.636719 -44.824219 L 403.050781 48.019531 L 297.097656 402.261719 L -13.316406 309.417969 Z M 92.636719 -44.824219 " clip-rule="nonzero"/></clipPath><clipPath id="9d0c0d3a95"><path d="M 92.636719 -44.824219 L 403.050781 48.019531 L 297.097656 402.261719 L -13.316406 309.417969 Z M 92.636719 -44.824219 " clip-rule="nonzero"/></clipPath></defs><g clip-path="url(#583b2e17a2)"><g clip-path="url(#a16453b36a)"><g clip-path="url(#04c3a0431e)"><g clip-path="url(#8a89471654)"><path fill="#51b59f" d="M 194.890625 326.292969 C 193.945312 327.488281 192.191406 329.710938 171.21875 330.253906 C 162.109375 330.492188 149.773438 330.257812 144.980469 328.828125 C 144.078125 328.558594 142.78125 328.070312 141.917969 326.96875 C 139.382812 323.738281 141.234375 318.632812 143.375 312.71875 C 144.183594 310.492188 145.402344 307.125 145.347656 306.066406 C 145.050781 299.964844 142.082031 295.894531 136.273438 293.613281 C 135.429688 293.28125 134.597656 292.996094 133.804688 292.757812 C 128.566406 291.191406 124.554688 291.6875 121.871094 294.230469 C 116.996094 298.839844 116.71875 309.011719 118.523438 316.507812 C 118.804688 317.683594 119.074219 318.726562 119.316406 319.648438 C 120.375 323.742188 121.074219 326.449219 119.355469 328.796875 C 117.503906 331.320312 114.433594 331.484375 107.710938 331.84375 C 106.832031 331.890625 105.875 331.945312 104.84375 332.003906 C 97.695312 332.417969 90.539062 332.808594 83.386719 333.203125 C 79.691406 333.40625 68.878906 334.003906 68.878906 334.003906 L 68.6875 330.589844 C 68.558594 328.277344 68.644531 324.734375 68.738281 320.632812 C 68.992188 309.84375 69.511719 287.390625 64.375 283.597656 C 63.804688 283.179688 63.246094 282.890625 62.660156 282.714844 C 60.011719 281.925781 56.632812 283.625 53.054688 285.425781 C 48.496094 287.71875 43.328125 290.316406 37.742188 288.648438 C 35.460938 287.964844 33.316406 286.597656 31.367188 284.585938 C 28.371094 281.488281 26.816406 276.933594 27.109375 272.089844 C 27.40625 267.246094 29.46875 262.933594 32.769531 260.257812 C 38.003906 256.027344 42.765625 256.78125 45.894531 257.71875 C 47.242188 258.121094 48.535156 258.644531 49.785156 259.148438 C 50.988281 259.640625 52.125 260.097656 53.265625 260.4375 C 54.648438 260.851562 55.808594 261.015625 56.910156 260.957031 C 59.40625 260.824219 61.128906 260.085938 62.339844 258.636719 C 66.140625 254.082031 64.71875 242.882812 63.578125 233.882812 C 62.894531 228.46875 62.246094 223.359375 62.601562 219.484375 L 62.644531 219.011719 C 63.125 213.789062 63.363281 211.171875 65.054688 209.203125 C 67.035156 206.894531 69.734375 206.847656 73.824219 206.78125 C 75.273438 206.753906 76.914062 206.726562 78.9375 206.617188 C 81.375 206.484375 84.449219 206.566406 87.703125 206.65625 C 94.917969 206.839844 104.800781 207.105469 109.210938 204.71875 C 114.425781 201.898438 113.824219 199.179688 110.605469 191.507812 C 107.761719 184.730469 103.867188 175.445312 114.355469 168.550781 C 118.390625 165.894531 124.019531 165.183594 129.050781 166.6875 C 132.878906 167.832031 136 170.171875 137.839844 173.277344 C 141.53125 179.5 139.199219 185 137.324219 189.417969 C 136.226562 192.007812 135.1875 194.453125 135.414062 196.71875 C 135.609375 198.660156 136.484375 201.078125 141.558594 202.59375 C 150.234375 205.191406 164.839844 203.242188 175.503906 201.816406 C 179.453125 201.292969 176.960938 201.429688 179.453125 201.292969 L 180.609375 201.195312 C 185.046875 200.820312 188.894531 204.238281 189.050781 208.6875 C 189.167969 210.824219 189.480469 209.34375 189.949219 213.148438 C 192.59375 234.53125 193.992188 252.4375 184.328125 254.902344 C 181.683594 255.578125 179.089844 254.96875 177.371094 254.457031 C 176.074219 254.070312 174.777344 253.570312 173.515625 253.085938 C 172.308594 252.621094 171.058594 252.140625 169.875 251.785156 C 167.847656 251.179688 166.304688 251.039062 165.03125 251.339844 C 158.867188 252.789062 154.535156 258.320312 154.257812 265.105469 C 154.027344 270.8125 156.855469 276.621094 161.128906 279.230469 C 162.019531 279.769531 162.894531 280.167969 163.730469 280.417969 C 166.761719 281.324219 169.402344 280.257812 172.742188 278.902344 C 175.382812 277.832031 178.378906 276.617188 181.867188 276.414062 C 184.96875 276.230469 186.867188 276.34375 188.425781 276.808594 C 193.398438 278.296875 193.53125 282.730469 193.683594 287.867188 C 193.714844 289.066406 193.753906 290.425781 193.84375 291.96875 C 193.914062 293.28125 194.289062 295.945312 194.71875 299.03125 C 196.976562 315.175781 197.535156 322.945312 194.890625 326.292969 " fill-opacity="1" fill-rule="nonzero"/></g></g></g></g><g clip-path="url(#a4cd2884fe)"><g clip-path="url(#096100bed0)"><g clip-path="url(#798de7bd04)"><g clip-path="url(#542cfdd88a)"><g clip-path="url(#a42aeb4b1f)"><g clip-path="url(#e97b243a6f)"><path fill="#397dc9" d="M 321.269531 320.640625 L 317.855469 320.828125 C 315.808594 320.941406 312.804688 320.878906 309.003906 320.804688 C 301.871094 320.660156 292.097656 320.460938 283.9375 321.4375 C 272.4375 322.808594 270.21875 325.796875 269.800781 327.015625 C 269.195312 328.777344 270.886719 333.929688 272.121094 337.6875 C 274.5625 345.125 277.332031 353.550781 272.957031 358.792969 C 270.136719 362.167969 265.144531 363.304688 257.6875 362.273438 C 256.230469 362.070312 254.886719 361.785156 253.6875 361.429688 C 241.234375 357.703125 244.476562 346.671875 246.625 339.367188 C 248.011719 334.640625 249.449219 329.753906 247.625 327.207031 C 246.984375 326.308594 245.65625 325.539062 243.789062 324.976562 C 235.40625 322.472656 219.203125 324.746094 208.480469 326.25 C 204.28125 326.84375 200.660156 327.347656 198.226562 327.484375 L 194.8125 327.671875 L 194.621094 324.261719 C 194.507812 322.171875 194.566406 319.046875 194.640625 315.085938 C 194.777344 308.109375 194.960938 298.554688 194.148438 290.507812 C 192.988281 278.984375 190.410156 276.449219 189.355469 275.890625 C 189.210938 275.816406 189.054688 275.753906 188.882812 275.699219 C 186.394531 274.957031 181.632812 276.714844 177.429688 278.261719 C 171.832031 280.328125 166.042969 282.464844 161.164062 281.003906 C 156.132812 279.5 153.382812 274.699219 152.992188 266.734375 C 152.6875 260.445312 154.042969 256.125 157.148438 253.539062 C 161.980469 249.507812 169.050781 251.152344 175.894531 252.746094 C 180.515625 253.816406 185.75 255.035156 187.820312 253.585938 C 193.429688 249.664062 191.371094 237.390625 189.554688 226.558594 C 188.027344 217.445312 186.585938 208.839844 188.925781 203.003906 L 189.734375 200.980469 L 191.910156 200.863281 C 194.171875 200.734375 197.402344 200.34375 201.140625 199.886719 C 212.191406 198.542969 225.941406 196.863281 234.277344 199.359375 C 238.292969 200.558594 240.875 202.683594 241.945312 205.660156 C 243.285156 209.394531 241.917969 213.199219 240.59375 216.882812 C 239.160156 220.867188 237.808594 224.628906 239.699219 228.039062 C 241.535156 231.351562 244.40625 233.667969 247.996094 234.742188 C 249.835938 235.292969 251.828125 235.507812 253.910156 235.386719 C 260.15625 235.015625 264.945312 231.804688 267.054688 226.582031 C 268.667969 222.574219 267.570312 220.023438 266.050781 216.488281 C 265.003906 214.046875 263.8125 211.28125 263.5625 207.851562 C 263.265625 203.746094 263.457031 200.78125 265.34375 198.695312 C 267.453125 196.363281 270.527344 196.277344 274.789062 196.160156 C 276.023438 196.125 277.417969 196.082031 278.988281 195.996094 C 280.214844 195.925781 282.816406 195.566406 285.832031 195.152344 C 297.050781 193.613281 306.707031 192.449219 311.222656 193.796875 C 312.179688 194.085938 312.949219 194.484375 313.574219 195.015625 C 316.449219 197.453125 317.125 203.71875 316.589844 222.929688 C 316.515625 225.476562 316.457031 227.675781 316.492188 228.683594 C 316.539062 229.964844 316.664062 231.285156 316.78125 232.566406 C 317.320312 238.367188 318.054688 246.316406 309.015625 248.132812 C 306.964844 248.542969 304.839844 248.386719 302.335938 247.636719 C 300.957031 247.226562 299.613281 246.679688 298.3125 246.152344 C 297.035156 245.636719 295.832031 245.148438 294.621094 244.785156 C 292.203125 244.0625 290.390625 244.050781 288.570312 244.75 C 283.140625 246.839844 279.277344 253.269531 279.585938 259.710938 C 279.890625 266.136719 284.175781 272.019531 289.773438 273.695312 L 289.972656 273.75 C 293.183594 274.648438 296.539062 272.90625 300.09375 271.0625 C 303.714844 269.1875 307.460938 267.242188 311.46875 268.136719 C 311.640625 268.175781 311.804688 268.21875 311.96875 268.269531 C 320.75 270.894531 321.277344 288.21875 321.046875 308.882812 C 321.011719 312.371094 320.972656 315.382812 321.078125 317.222656 L 321.269531 320.640625 " fill-opacity="1" fill-rule="nonzero"/></g></g></g></g></g></g><g clip-path="url(#ba6714d214)"><g clip-path="url(#2cb169cbac)"><g clip-path="url(#cfe603b470)"><g clip-path="url(#4ccbc5ee52)"><path fill="#f8e505" d="M 217.566406 151.609375 C 212.660156 154.667969 206.476562 152.828125 201.019531 151.203125 C 197.523438 150.164062 193.910156 149.085938 191.472656 149.53125 C 185.957031 150.527344 185.535156 155.53125 186.667969 166.375 C 186.847656 168.121094 187.023438 169.761719 187.105469 171.320312 C 187.171875 172.574219 187.542969 174.835938 187.9375 177.226562 C 189.476562 186.601562 190.378906 193.527344 187.914062 197.273438 C 184.550781 202.390625 177.726562 202.496094 171.125 202.601562 C 169.65625 202.625 168.140625 202.644531 166.714844 202.730469 C 164.835938 202.832031 162.597656 203.132812 160.226562 203.449219 C 154.710938 204.183594 148.464844 205.015625 143.59375 203.804688 C 142.316406 203.488281 141.359375 203.230469 140.578125 203 C 138.535156 202.386719 136.261719 201.5625 135.203125 199.488281 C 134.152344 197.4375 134.84375 195.445312 135.515625 193.519531 C 135.933594 192.3125 136.457031 190.808594 136.839844 188.792969 C 138.800781 178.488281 135.234375 170.921875 127.304688 168.550781 C 122.167969 167.015625 116.480469 168.171875 112.808594 171.496094 C 109.285156 174.6875 108.019531 179.441406 109.148438 185.25 C 109.316406 186.109375 110.433594 188.125 111.335938 189.742188 C 113.765625 194.117188 116.277344 198.640625 114.347656 202.347656 C 112.011719 206.816406 104.988281 207.035156 96.730469 206.863281 C 95.546875 206.835938 94.429688 206.8125 93.84375 206.84375 C 91.910156 206.957031 89.734375 207.230469 87.429688 207.515625 C 82.101562 208.179688 76.589844 208.863281 71.777344 207.960938 C 69.25 207.488281 68.40625 207.828125 68.042969 207.972656 C 67.609375 208.148438 66.597656 208.554688 65.363281 208.1875 C 65.363281 208.1875 65.359375 208.183594 65.359375 208.183594 C 63.113281 207.511719 62.816406 205.394531 62.671875 204.378906 C 62.542969 203.460938 62.304688 201.757812 61.503906 198.660156 C 60.644531 195.332031 60.652344 191.652344 60.660156 188.09375 C 60.660156 186.527344 60.667969 185.046875 60.589844 183.710938 C 60.546875 182.863281 60.324219 181.230469 60.066406 179.339844 C 58.414062 167.242188 58.15625 160.976562 61.15625 158.078125 C 64.828125 154.542969 69.753906 156.015625 71.375 156.5 C 72.644531 156.878906 73.921875 157.371094 75.152344 157.84375 C 76.347656 158.300781 77.472656 158.734375 78.546875 159.058594 C 79.550781 159.355469 80.363281 159.511719 81.03125 159.539062 C 86.675781 159.746094 91.722656 157.082031 94.523438 152.414062 C 97.347656 147.710938 97.296875 141.902344 94.378906 136.878906 C 92.445312 133.546875 89.988281 131.472656 86.871094 130.539062 C 84.652344 129.875 82.046875 129.789062 79.128906 130.285156 C 78.253906 130.433594 75.949219 131.722656 74.265625 132.664062 C 70.078125 135.003906 66.128906 137.214844 62.785156 136.214844 L 62.578125 136.148438 C 56.121094 133.9375 55.035156 120.414062 55.144531 92.820312 C 55.160156 89.574219 55.167969 86.769531 55.09375 85.429688 L 54.90625 82.015625 L 58.316406 81.824219 C 62.082031 81.617188 66.75 81.761719 71.695312 81.914062 C 82.320312 82.242188 95.542969 82.648438 102.105469 79.296875 C 105.128906 77.75 106.839844 76.335938 107.066406 75.199219 C 107.285156 74.078125 106.441406 72.144531 105.46875 69.910156 C 104.523438 67.738281 103.34375 65.03125 102.589844 61.800781 C 101.078125 55.34375 103.132812 48.515625 107.949219 43.980469 C 112.027344 40.144531 117.21875 38.796875 122.191406 40.285156 C 124.925781 41.101562 127.464844 42.746094 129.734375 45.167969 C 135.808594 51.648438 133.238281 58.984375 131.179688 64.878906 C 129.121094 70.757812 128.464844 73.59375 130.847656 76.027344 C 131.425781 76.617188 132.355469 77.105469 133.613281 77.480469 C 139.570312 79.261719 150.019531 77.816406 157.648438 76.765625 C 160.644531 76.347656 163.226562 75.992188 165.140625 75.882812 C 166.871094 75.785156 168.300781 75.632812 169.566406 75.496094 C 172.125 75.222656 173.972656 75.023438 175.824219 75.578125 C 179.207031 76.589844 180.738281 79.703125 182.019531 82.804688 C 184.148438 87.960938 183.933594 95.382812 183.738281 101.933594 C 183.65625 104.75 183.578125 107.410156 183.699219 109.527344 C 183.769531 110.769531 183.816406 112.050781 183.855469 113.335938 C 184.121094 121.15625 184.582031 126.371094 188.445312 127.523438 C 189.429688 127.820312 190.667969 127.910156 192.125 127.792969 C 193.890625 127.652344 195.820312 126.445312 197.859375 125.175781 C 200.828125 123.324219 204.195312 121.222656 208.449219 121.441406 C 209.761719 121.511719 211.054688 121.730469 212.292969 122.101562 C 220.152344 124.453125 225.03125 132.433594 223.640625 140.664062 C 222.734375 146.050781 220.746094 149.628906 217.566406 151.609375 " fill-opacity="1" fill-rule="nonzero"/></g></g></g></g><g clip-path="url(#c474c145e7)"><g clip-path="url(#533b98d831)"><g clip-path="url(#c0ac7a3f5e)"><g clip-path="url(#a3f312dda2)"><path fill="#ef3220" d="M 323.824219 109.222656 C 322.886719 112.902344 318.761719 114.414062 316.40625 115.054688 C 312.574219 119.199219 307.042969 122.125 301.679688 124.957031 C 298.3125 126.734375 295.128906 128.417969 292.652344 130.25 C 285.230469 135.757812 284.617188 137.957031 284.605469 138.496094 C 284.585938 139.472656 286.933594 141.375 289.011719 143.054688 C 291.6875 145.226562 295.015625 147.921875 297.902344 151.785156 C 302.238281 157.59375 302.375 164.867188 298.246094 170.773438 C 293.988281 176.859375 286.492188 179.761719 280.015625 177.824219 C 280.015625 177.824219 280.011719 177.824219 280.011719 177.824219 C 277.234375 176.992188 274.773438 175.355469 272.707031 172.960938 C 268.894531 168.542969 267.976562 163.25 267.234375 158.992188 C 266.496094 154.730469 266.015625 152.820312 264.554688 152.382812 C 263.636719 152.105469 261.738281 152.015625 257.894531 153.148438 C 252.527344 154.730469 246.183594 159.550781 240.585938 163.804688 C 237.839844 165.890625 235.246094 167.855469 232.792969 169.460938 C 226.679688 173.4375 222.742188 175.820312 218.910156 174.675781 C 215.753906 173.730469 214.050781 170.980469 211.222656 166.425781 C 210.417969 165.136719 209.511719 163.667969 208.4375 162.027344 C 207.71875 160.933594 206.359375 159.214844 204.785156 157.222656 C 198.453125 149.222656 193.609375 142.703125 193.613281 137.695312 C 193.617188 129.164062 199.324219 128.683594 202.738281 128.398438 C 204.375 128.261719 206.066406 128.121094 207.75 127.4375 C 214.269531 124.804688 218.976562 119.417969 219.746094 113.710938 C 220.394531 108.878906 218.199219 104.390625 213.398438 100.722656 C 211.507812 99.28125 209.65625 98.285156 207.898438 97.757812 C 199.257812 95.175781 192.371094 104.109375 184.90625 115.15625 L 181.519531 120.164062 L 149.476562 72.195312 L 152.359375 70.308594 C 153.585938 69.5 155.902344 67.757812 158.589844 65.742188 C 177.445312 51.582031 188.839844 44.261719 195.039062 46.117188 C 195.730469 46.324219 196.359375 46.636719 196.910156 47.050781 C 200.175781 49.496094 200.746094 54.15625 201.300781 58.660156 C 201.695312 61.914062 202.148438 65.605469 203.5625 67.210938 C 205.648438 69.574219 207.992188 71.160156 210.53125 71.921875 C 212.554688 72.523438 214.769531 72.625 217.113281 72.222656 C 223.289062 71.164062 227.359375 68.109375 228.882812 63.398438 C 230.75 57.621094 228.488281 50.148438 223.25 44.796875 C 221.363281 42.867188 219.710938 41.5 218.382812 40.398438 C 216.050781 38.46875 214.03125 36.796875 214.089844 34.054688 C 214.15625 30.824219 216.902344 28.738281 222.914062 24.171875 C 223.886719 23.433594 224.992188 22.566406 226.191406 21.628906 C 232.238281 16.886719 240.390625 10.492188 246.886719 8.335938 C 248.605469 6.328125 252.113281 2.875 256.289062 4.121094 C 260.300781 5.324219 261.875 10.246094 262.484375 12.523438 C 265.25 16.742188 268.015625 20.964844 270.785156 25.183594 C 271.671875 26.535156 272.65625 28.324219 273.792969 30.394531 C 276.480469 35.277344 280.980469 43.453125 284.382812 44.710938 C 284.582031 44.785156 284.777344 44.847656 284.96875 44.90625 C 288.804688 46.050781 290.800781 43.847656 294.773438 38.144531 C 298.601562 32.65625 303.839844 25.136719 314.066406 28.195312 L 314.394531 28.296875 C 318.886719 29.726562 322.789062 33.496094 324.835938 38.375 C 326.75 42.949219 326.71875 47.8125 324.742188 51.71875 C 321.398438 58.316406 315.628906 59.175781 310.996094 59.867188 C 308.875 60.179688 306.875 60.476562 305.152344 61.242188 C 302.144531 62.582031 300.449219 64.128906 299.960938 65.972656 C 298.800781 70.402344 304.097656 77.546875 308.359375 83.285156 C 309.890625 85.347656 311.335938 87.296875 312.566406 89.179688 C 315.167969 93.128906 317.773438 97.097656 320.363281 101.074219 C 323.328125 103.855469 324.492188 106.589844 323.824219 109.222656 " fill-opacity="1" fill-rule="nonzero"/></g></g></g></g><g clip-path="url(#b6d1db7987)"><g clip-path="url(#3ec39354d2)"><g clip-path="url(#eae6a68c0c)"><g clip-path="url(#9d0c0d3a95)"><path fill="#110f0d" d="M 179.746094 121.347656 C 180.03125 121.777344 180.445312 122.070312 180.90625 122.210938 C 181.492188 122.386719 182.15625 122.308594 182.707031 121.941406 C 183.6875 121.285156 183.949219 119.957031 183.292969 118.976562 L 154.726562 76.207031 C 154.066406 75.226562 152.742188 74.964844 151.761719 75.621094 C 150.78125 76.273438 150.515625 77.597656 151.171875 78.582031 Z M 194.933594 329.808594 C 194.679688 329.820312 194.429688 329.789062 194.203125 329.722656 C 193.363281 329.46875 192.730469 328.71875 192.679688 327.792969 L 192.488281 324.378906 C 192.367188 322.199219 192.429688 319.039062 192.507812 315.042969 C 192.636719 308.121094 192.820312 298.640625 192.023438 290.71875 C 190.871094 279.292969 188.386719 277.796875 188.359375 277.78125 C 188.332031 277.765625 188.300781 277.757812 188.269531 277.75 C 186.464844 277.207031 181.472656 279.050781 178.171875 280.265625 C 172.242188 282.457031 166.109375 284.714844 160.550781 283.054688 C 156.429688 281.820312 151.40625 278.007812 150.859375 266.839844 C 150.515625 259.832031 152.125 254.945312 155.78125 251.898438 C 161.425781 247.183594 169.367188 249.03125 176.375 250.660156 C 179.5 251.386719 185.304688 252.738281 186.59375 251.835938 C 191.097656 248.683594 189.074219 236.617188 187.449219 226.914062 C 186.285156 219.972656 185.1875 213.398438 185.679688 207.847656 L 184.339844 207.3125 C 179.058594 205.191406 170.742188 206.59375 161.933594 208.066406 C 150.476562 209.988281 137.496094 212.160156 132.800781 205.449219 C 130.804688 202.597656 132.023438 197.363281 133.316406 191.824219 C 134.789062 185.480469 136.308594 178.9375 132.960938 174.921875 C 130.828125 172.367188 127.082031 171.257812 121.507812 171.53125 C 114.542969 171.875 110.394531 174.109375 109.179688 178.179688 C 107.921875 182.375 109.933594 187.824219 111.878906 193.09375 C 113.628906 197.832031 115.433594 202.726562 114.484375 205.898438 C 114.390625 206.203125 114.273438 206.496094 114.136719 206.761719 C 112.554688 209.753906 107.074219 211.75 97.847656 212.675781 C 89.667969 213.5 80.042969 213.316406 73.011719 213.179688 C 69.101562 213.105469 66.019531 213.046875 63.996094 213.160156 L 60.582031 213.351562 C 60.328125 213.363281 60.082031 213.332031 59.851562 213.265625 C 59.015625 213.015625 58.378906 212.261719 58.332031 211.335938 C 58.265625 210.15625 59.167969 209.148438 60.347656 209.085938 L 63.757812 208.894531 C 65.941406 208.773438 69.097656 208.835938 73.09375 208.914062 C 80.015625 209.042969 89.492188 209.226562 97.417969 208.425781 C 108.847656 207.273438 110.34375 204.789062 110.355469 204.765625 C 110.371094 204.734375 110.382812 204.703125 110.390625 204.671875 C 110.929688 202.867188 109.089844 197.878906 107.871094 194.578125 C 105.683594 188.644531 103.421875 182.515625 105.085938 176.953125 C 106.316406 172.835938 110.128906 167.808594 121.300781 167.265625 C 128.304688 166.921875 133.191406 168.53125 136.238281 172.183594 C 140.953125 177.832031 139.105469 185.773438 137.476562 192.78125 C 136.75 195.90625 135.398438 201.710938 136.304688 203 C 139.453125 207.503906 151.523438 205.480469 161.222656 203.855469 C 170.640625 202.277344 179.535156 200.777344 185.929688 203.347656 L 187.949219 204.15625 C 188.53125 204.386719 188.945312 204.847656 189.148438 205.386719 C 189.765625 205.832031 190.128906 206.578125 190.027344 207.386719 C 189.367188 212.507812 190.480469 219.160156 191.664062 226.199219 C 193.582031 237.660156 195.757812 250.640625 189.046875 255.335938 C 186.195312 257.335938 180.960938 256.113281 175.417969 254.828125 C 169.074219 253.351562 162.53125 251.828125 158.515625 255.179688 C 155.964844 257.308594 154.855469 261.054688 155.128906 266.628906 C 155.46875 273.59375 157.703125 277.742188 161.773438 278.960938 C 165.96875 280.214844 171.417969 278.203125 176.6875 276.257812 C 181.429688 274.511719 186.324219 272.703125 189.496094 273.652344 C 189.800781 273.742188 190.089844 273.863281 190.355469 274.003906 C 193.351562 275.585938 195.34375 281.0625 196.273438 290.292969 C 197.097656 298.46875 196.914062 308.097656 196.78125 315.125 C 196.703125 319.035156 196.644531 322.121094 196.757812 324.140625 L 196.945312 327.554688 C 197.011719 328.730469 196.109375 329.742188 194.933594 329.808594 " fill-opacity="1" fill-rule="nonzero"/></g></g></g></g></svg>